<svg width="32" height="32" viewBox="0 0 32 32" fill="none" xmlns="http://www.w3.org/2000/svg">
<rect width="32" height="32" fill="#011C40"/>
<path fill-rule="evenodd" clip-rule="evenodd" d="M3.33559 19.4671L8.44984 12.6211L9.84896 13.3627L13.1781 8L15.2527 10.4532L16.0247 9.82564L19.016 13.591L21.1389 11.0807L27.0732 19.4671L21.356 12.3359L20.4875 15.331L21.2836 17.6986L16.1694 10.7099L16.114 13.0945L19.016 19.4671L13.5881 9.59738L15.1562 14.9317L12.961 9.74002L11.7548 13.1916L11.9959 10.9381L8.98047 19.0678L9.34224 15.6447L8.08787 14.2756L3.33559 19.4671Z" fill="#F9FBFD"/>
<path fill-rule="evenodd" clip-rule="evenodd" d="M28.7925 20.5379C20.6952 14.0524 8.09194 22.9685 3 19.5301C8.59829 24.4027 21.6836 16.1658 28.7925 20.5379Z" fill="#F9FBFD"/>
<path fill-rule="evenodd" clip-rule="evenodd" d="M29 21.0479C22.647 17.0326 13.1982 22.6204 8.35559 21.3264C13.603 23.8525 23.3722 18.2554 29 21.0479Z" fill="#F9FBFD"/>
</svg>
