<svg xmlns="http://www.w3.org/2000/svg" xmlns:xlink="http://www.w3.org/1999/xlink"><symbol id="icon-boat" viewBox="0 0 42 32">
<path d="M39.555 20.056L1.57287 16.0684C1.28101 16.0378 1.0843 16.3326 1.23548 16.5673C3.66312 20.3403 9.41009 23 16.1 23H38.7584C38.9124 23 39.0475 22.9068 39.093 22.7698L39.8504 20.476C39.9148 20.281 39.7727 20.0788 39.555 20.056Z" fill="#011C40"/>
<path d="M41.8896 13.5177C41.7782 13.3559 41.597 13.2483 41.3933 13.2229L30.8932 11.9184C30.5145 11.8721 30.1582 12.1219 30.1065 12.4787C30.0547 12.8355 30.3248 13.1642 30.7078 13.2117L31.8964 13.3591C32.07 13.3807 32.2002 13.519 32.2002 13.682V14.6903C32.2002 14.884 32.0195 15.0353 31.8131 15.0145L29.0131 14.7347C28.8353 14.7177 28.7002 14.5774 28.7002 14.4111V11.5565C28.7002 11.4919 28.7205 11.4293 28.759 11.3758L29.9826 9.66575C30.1226 9.47009 30.1387 9.21962 30.0253 9.01028C29.9112 8.80025 29.6852 8.66329 29.4332 8.65221L14.7331 8.00003C14.4972 7.99804 14.2683 8.09266 14.1304 8.27266C14.1304 8.27266 11.3332 11.9354 10.72 12.7415C10.6465 12.838 10.5233 12.8896 10.3973 12.8765L0.774214 11.9165C0.575451 11.897 0.379396 11.9564 0.231739 12.0796C0.0847386 12.2035 0 12.3796 0 12.5648C0 13.1929 0.0875277 13.8086 0.252739 14.406C0.289161 14.5378 0.412372 14.6336 0.55724 14.6493L40.1052 18.8012C40.2725 18.8188 40.4293 18.7229 40.479 18.5729L41.9694 14.0609C42.0295 13.8777 42.0001 13.6788 41.8896 13.5177ZM20.2007 9.90513L19.6547 13.4675C19.6281 13.6403 19.4635 13.7635 19.2767 13.746C17.911 13.6175 12.7799 13.1146 12.7799 13.1146C12.5139 13.0879 12.3768 12.8042 12.5321 12.6007L14.9366 9.46428C15.0059 9.37424 15.1193 9.32273 15.2383 9.328L19.871 9.53345C20.0768 9.54254 20.23 9.71466 20.2007 9.90513ZM27.7894 10.3806L27.3589 10.9806C27.3204 11.0341 27.3001 11.0974 27.3001 11.1619V14.2019C27.3001 14.3955 27.1195 14.5469 26.913 14.526L21.3577 13.9717C21.161 13.9521 21.0203 13.7838 21.0483 13.6012L21.6146 9.9078C21.6398 9.74149 21.7973 9.62019 21.9779 9.62799L27.5149 9.87386C27.7866 9.88556 27.9406 10.1693 27.7894 10.3806ZM36.4001 15.1097C36.4001 15.3034 36.2195 15.4547 36.013 15.4338C36.013 15.4338 34.5598 15.2812 33.9088 15.2095C33.7324 15.1906 33.6001 15.051 33.6001 14.886V13.9429C33.6001 13.746 33.7863 13.5933 33.9963 13.6194L36.0963 13.8802C36.2699 13.9024 36.4001 14.0407 36.4001 14.2038V15.1097ZM40.2662 14.7823L40.0065 15.5675C39.9576 15.7162 39.8014 15.8121 39.6348 15.7958L38.1123 15.6439C37.9352 15.6263 37.8001 15.486 37.8001 15.3197V14.4653C37.8001 14.2684 37.9863 14.1157 38.1963 14.1418L39.9778 14.3629C40.192 14.3897 40.3299 14.5893 40.2662 14.7823Z" fill="#011C40"/>
</symbol><symbol id="icon-check" viewBox="0 0 38 32">
<path d="M28.7534 7.21506L26.4398 5L16.0732 14.9325L18.3868 17.1476L28.7534 7.21506ZM35.6945 5L18.3787 21.5699L11.5602 15.0421L9.24656 17.2572L18.3787 26L38 7.21506L35.6945 5ZM0 17.2572L9.1321 26L11.4458 23.7849L2.31368 15.0421L0 17.2572Z" fill="#011C40"/>
</symbol><symbol id="icon-facebook" viewBox="0 0 20 20">
<path d="M11.3103 11.5H13.9212L14.9655 7.5H11.3103V5.5C11.3103 4.47 11.3103 3.5 13.399 3.5H14.9655V0.14C14.6251 0.0970001 13.3395 0 11.9819 0C9.14648 0 7.13301 1.657 7.13301 4.7V7.5H4V11.5H7.13301V20H11.3103V11.5Z"/>
</symbol><symbol id="icon-input" viewBox="0 0 18 18">
<path d="M4 7.5L8.28571 12L14 6" stroke="#101A56"/>
</symbol><symbol id="icon-instagram" viewBox="0 0 21 20">
<path d="M10.7357 0C13.3839 0 13.7144 0.00999994 14.7534 0.0599999C15.7915 0.11 16.4982 0.277 17.12 0.525C17.7633 0.779 18.3053 1.123 18.8472 1.678C19.3428 2.1779 19.7264 2.78259 19.9711 3.45C20.2118 4.087 20.3756 4.813 20.4243 5.878C20.4701 6.944 20.4828 7.283 20.4828 10C20.4828 12.717 20.473 13.056 20.4243 14.122C20.3756 15.187 20.2118 15.912 19.9711 16.55C19.7271 17.2178 19.3435 17.8226 18.8472 18.322C18.3598 18.8303 17.7705 19.2238 17.12 19.475C16.4991 19.722 15.7915 19.89 14.7534 19.94C13.7144 19.987 13.3839 20 10.7357 20C8.08736 20 7.75693 19.99 6.71789 19.94C5.67982 19.89 4.97315 19.722 4.35128 19.475C3.70049 19.2245 3.11099 18.8309 2.62409 18.322C2.12836 17.8222 1.74484 17.2175 1.50025 16.55C1.25852 15.913 1.09574 15.187 1.04701 14.122C1.0012 13.056 0.988525 12.717 0.988525 10C0.988525 7.283 0.998272 6.944 1.04701 5.878C1.09574 4.812 1.25852 4.088 1.50025 3.45C1.74416 2.78218 2.12777 2.17732 2.62409 1.678C3.11113 1.16923 3.70059 0.775729 4.35128 0.525C4.97315 0.277 5.67884 0.11 6.71789 0.0599999C7.75693 0.0129999 8.08736 0 10.7357 0ZM10.7357 5C9.4431 5 8.20349 5.52678 7.28952 6.46447C6.37555 7.40215 5.86209 8.67392 5.86209 10C5.86209 11.3261 6.37555 12.5979 7.28952 13.5355C8.20349 14.4732 9.4431 15 10.7357 15C12.0282 15 13.2678 14.4732 14.1818 13.5355C15.0958 12.5979 15.6092 11.3261 15.6092 10C15.6092 8.67392 15.0958 7.40215 14.1818 6.46447C13.2678 5.52678 12.0282 5 10.7357 5ZM17.0713 4.75C17.0713 4.41848 16.9429 4.10054 16.7144 3.86612C16.4859 3.6317 16.176 3.5 15.8529 3.5C15.5298 3.5 15.2199 3.6317 14.9914 3.86612C14.7629 4.10054 14.6345 4.41848 14.6345 4.75C14.6345 5.08152 14.7629 5.39946 14.9914 5.63388C15.2199 5.8683 15.5298 6 15.8529 6C16.176 6 16.4859 5.8683 16.7144 5.63388C16.9429 5.39946 17.0713 5.08152 17.0713 4.75ZM10.7357 7C11.5112 7 12.2549 7.31607 12.8033 7.87868C13.3517 8.44129 13.6598 9.20435 13.6598 10C13.6598 10.7956 13.3517 11.5587 12.8033 12.1213C12.2549 12.6839 11.5112 13 10.7357 13C9.96012 13 9.21636 12.6839 8.66797 12.1213C8.11959 11.5587 7.81151 10.7956 7.81151 10C7.81151 9.20435 8.11959 8.44129 8.66797 7.87868C9.21636 7.31607 9.96012 7 10.7357 7Z"/>
</symbol><symbol id="icon-map" viewBox="0 0 18 22">
<path d="M15.364 15.5563L9 22L2.636 15.5563C1.37734 14.2819 0.520187 12.6581 0.172928 10.8905C-0.17433 9.12277 0.00390685 7.29051 0.685099 5.62539C1.36629 3.96027 2.51984 2.53707 3.99988 1.53576C5.47992 0.534448 7.21998 0 9 0C10.78 0 12.5201 0.534448 14.0001 1.53576C15.4802 2.53707 16.6337 3.96027 17.3149 5.62539C17.9961 7.29051 18.1743 9.12277 17.8271 10.8905C17.4798 12.6581 16.6227 14.2819 15.364 15.5563ZM9 11.1377C9.53044 11.1377 10.0391 10.9243 10.4142 10.5445C10.7893 10.1648 11 9.64969 11 9.11262C11 8.57554 10.7893 8.06047 10.4142 7.6807C10.0391 7.30093 9.53044 7.08757 9 7.08757C8.46957 7.08757 7.96086 7.30093 7.58579 7.6807C7.21072 8.06047 7 8.57554 7 9.11262C7 9.64969 7.21072 10.1648 7.58579 10.5445C7.96086 10.9243 8.46957 11.1377 9 11.1377Z" fill="#011C40"/>
</symbol><symbol id="icon-phone" viewBox="0 0 18 18">
<path d="M18 13.42V16.956C18.0001 17.2092 17.9042 17.453 17.7316 17.6382C17.559 17.8234 17.3226 17.9363 17.07 17.954C16.633 17.984 16.276 18 16 18C7.163 18 0 10.837 0 2C0 1.724 0.015 1.367 0.046 0.93C0.0637224 0.677444 0.176581 0.441011 0.361804 0.268409C0.547026 0.0958068 0.790823 -0.000114433 1.044 2.56579e-07H4.58C4.70404 -0.000125334 4.8237 0.045859 4.91573 0.12902C5.00776 0.212182 5.0656 0.326583 5.078 0.45C5.101 0.68 5.122 0.863 5.142 1.002C5.34073 2.38892 5.748 3.73783 6.35 5.003C6.445 5.203 6.383 5.442 6.203 5.57L4.045 7.112C5.36445 10.1865 7.81455 12.6365 10.889 13.956L12.429 11.802C12.4919 11.714 12.5838 11.6509 12.6885 11.6237C12.7932 11.5964 12.9042 11.6068 13.002 11.653C14.267 12.2539 15.6156 12.6601 17.002 12.858C17.141 12.878 17.324 12.9 17.552 12.922C17.6752 12.9346 17.7894 12.9926 17.8724 13.0846C17.9553 13.1766 18.0012 13.2961 18.001 13.42H18Z" fill="#011C40"/>
</symbol><symbol id="icon-ship" viewBox="0 0 27 32">
<path d="M4.40549 16.3962L13.2165 9.93576C13.4162 9.8063 13.6711 9.8063 13.8708 9.93576L22.7254 16.3962V8.68818C22.7739 7.6312 21.9743 6.7343 20.9396 6.68484C20.9242 6.68407 20.9089 6.68356 20.8934 6.68322H6.23749C5.20189 6.70667 4.38094 7.58319 4.4039 8.6411C4.40423 8.6568 4.40473 8.67249 4.40549 8.68818V16.3962Z" fill="#011C40"/>
<path d="M15.7464 0H11.3845V5.34662H15.7464V0Z" fill="#011C40"/>
<path d="M24.2956 30.1638L27 21.03L23.2052 18.3122L22.9434 18.1785L14.0016 11.8072V30.6094H13.5217L12.6929 30.5649V11.8072L0 21.03L2.79163 30.1193L4.4039 31.9904C4.4039 31.9904 5.7624 31.9904 7.15817 31.9904C7.15817 31.9904 12.2467 31.997 13.5218 31.9904C14.8198 32.012 17.1251 31.9904 17.1251 31.9904H22.8127L24.2956 30.1638Z" fill="#011C40"/>
</symbol><symbol id="icon-twitter" viewBox="0 0 20 20">
<path d="M19.9876 3.7291C19.2574 4.0602 18.4832 4.27766 17.6904 4.37426C18.526 3.86189 19.1514 3.05552 19.4501 2.10542C18.6659 2.5839 17.8061 2.91922 16.91 3.10061C16.3081 2.44033 15.5103 2.00243 14.6406 1.85499C13.7708 1.70755 12.878 1.85882 12.1008 2.28529C11.3236 2.71177 10.7056 3.38954 10.3429 4.21326C9.98015 5.03697 9.89304 5.96047 10.0951 6.84018C8.50476 6.75846 6.94899 6.33476 5.52877 5.59659C4.10854 4.85843 2.85561 3.82229 1.85132 2.55546C1.49584 3.18145 1.30903 3.89306 1.31003 4.61742C1.31003 6.03912 2.01582 7.29512 3.08884 8.03048C2.45383 8.00999 1.8328 7.83417 1.27751 7.51769V7.56867C1.27771 8.51553 1.59729 9.43318 2.18208 10.166C2.76686 10.8989 3.58087 11.4019 4.48607 11.5896C3.89659 11.7534 3.27849 11.7776 2.67857 11.6602C2.93379 12.4752 3.43122 13.188 4.10123 13.6988C4.77123 14.2095 5.58026 14.4926 6.41503 14.5085C5.58538 15.1766 4.63543 15.6704 3.6195 15.9618C2.60357 16.2532 1.54159 16.3364 0.494263 16.2067C2.32252 17.4122 4.45078 18.0521 6.62447 18.05C13.9817 18.05 18.005 11.8014 18.005 6.38229C18.005 6.2058 18.0003 6.02735 17.9926 5.85283C18.7757 5.27255 19.4516 4.55371 19.9885 3.73008L19.9876 3.7291Z"/>
</symbol></svg>