<svg width="42" height="32" viewBox="0 0 42 32" fill="none" xmlns="http://www.w3.org/2000/svg">
<path d="M39.555 20.056L1.57287 16.0684C1.28101 16.0378 1.0843 16.3326 1.23548 16.5673C3.66312 20.3403 9.41009 23 16.1 23H38.7584C38.9124 23 39.0475 22.9068 39.093 22.7698L39.8504 20.476C39.9148 20.281 39.7727 20.0788 39.555 20.056Z" fill="#011C40"/>
<path d="M41.8896 13.5177C41.7782 13.3559 41.597 13.2483 41.3933 13.2229L30.8932 11.9184C30.5145 11.8721 30.1582 12.1219 30.1065 12.4787C30.0547 12.8355 30.3248 13.1642 30.7078 13.2117L31.8964 13.3591C32.07 13.3807 32.2002 13.519 32.2002 13.682V14.6903C32.2002 14.884 32.0195 15.0353 31.8131 15.0145L29.0131 14.7347C28.8353 14.7177 28.7002 14.5774 28.7002 14.4111V11.5565C28.7002 11.4919 28.7205 11.4293 28.759 11.3758L29.9826 9.66575C30.1226 9.47009 30.1387 9.21962 30.0253 9.01028C29.9112 8.80025 29.6852 8.66329 29.4332 8.65221L14.7331 8.00003C14.4972 7.99804 14.2683 8.09266 14.1304 8.27266C14.1304 8.27266 11.3332 11.9354 10.72 12.7415C10.6465 12.838 10.5233 12.8896 10.3973 12.8765L0.774214 11.9165C0.575451 11.897 0.379396 11.9564 0.231739 12.0796C0.0847386 12.2035 0 12.3796 0 12.5648C0 13.1929 0.0875277 13.8086 0.252739 14.406C0.289161 14.5378 0.412372 14.6336 0.55724 14.6493L40.1052 18.8012C40.2725 18.8188 40.4293 18.7229 40.479 18.5729L41.9694 14.0609C42.0295 13.8777 42.0001 13.6788 41.8896 13.5177ZM20.2007 9.90513L19.6547 13.4675C19.6281 13.6403 19.4635 13.7635 19.2767 13.746C17.911 13.6175 12.7799 13.1146 12.7799 13.1146C12.5139 13.0879 12.3768 12.8042 12.5321 12.6007L14.9366 9.46428C15.0059 9.37424 15.1193 9.32273 15.2383 9.328L19.871 9.53345C20.0768 9.54254 20.23 9.71466 20.2007 9.90513ZM27.7894 10.3806L27.3589 10.9806C27.3204 11.0341 27.3001 11.0974 27.3001 11.1619V14.2019C27.3001 14.3955 27.1195 14.5469 26.913 14.526L21.3577 13.9717C21.161 13.9521 21.0203 13.7838 21.0483 13.6012L21.6146 9.9078C21.6398 9.74149 21.7973 9.62019 21.9779 9.62799L27.5149 9.87386C27.7866 9.88556 27.9406 10.1693 27.7894 10.3806ZM36.4001 15.1097C36.4001 15.3034 36.2195 15.4547 36.013 15.4338C36.013 15.4338 34.5598 15.2812 33.9088 15.2095C33.7324 15.1906 33.6001 15.051 33.6001 14.886V13.9429C33.6001 13.746 33.7863 13.5933 33.9963 13.6194L36.0963 13.8802C36.2699 13.9024 36.4001 14.0407 36.4001 14.2038V15.1097ZM40.2662 14.7823L40.0065 15.5675C39.9576 15.7162 39.8014 15.8121 39.6348 15.7958L38.1123 15.6439C37.9352 15.6263 37.8001 15.486 37.8001 15.3197V14.4653C37.8001 14.2684 37.9863 14.1157 38.1963 14.1418L39.9778 14.3629C40.192 14.3897 40.3299 14.5893 40.2662 14.7823Z" fill="#011C40"/>
</svg>
