<svg width="20" height="20" viewBox="0 0 20 20" fill="none" xmlns="http://www.w3.org/2000/svg">
<path d="M19.9876 3.7291C19.2574 4.0602 18.4832 4.27766 17.6904 4.37426C18.526 3.86189 19.1514 3.05552 19.4501 2.10542C18.6659 2.5839 17.8061 2.91922 16.91 3.10061C16.3081 2.44033 15.5103 2.00243 14.6406 1.85499C13.7708 1.70755 12.878 1.85882 12.1008 2.28529C11.3236 2.71177 10.7056 3.38954 10.3429 4.21326C9.98015 5.03697 9.89304 5.96047 10.0951 6.84018C8.50476 6.75846 6.94899 6.33476 5.52877 5.59659C4.10854 4.85843 2.85561 3.82229 1.85132 2.55546C1.49584 3.18145 1.30903 3.89306 1.31003 4.61742C1.31003 6.03912 2.01582 7.29512 3.08884 8.03048C2.45383 8.00999 1.8328 7.83417 1.27751 7.51769V7.56867C1.27771 8.51553 1.59729 9.43318 2.18208 10.166C2.76686 10.8989 3.58087 11.4019 4.48607 11.5896C3.89659 11.7534 3.27849 11.7776 2.67857 11.6602C2.93379 12.4752 3.43122 13.188 4.10123 13.6988C4.77123 14.2095 5.58026 14.4926 6.41503 14.5085C5.58538 15.1766 4.63543 15.6704 3.6195 15.9618C2.60357 16.2532 1.54159 16.3364 0.494263 16.2067C2.32252 17.4122 4.45078 18.0521 6.62447 18.05C13.9817 18.05 18.005 11.8014 18.005 6.38229C18.005 6.2058 18.0003 6.02735 17.9926 5.85283C18.7757 5.27255 19.4516 4.55371 19.9885 3.73008L19.9876 3.7291Z"/>
</svg>
